<?xml version="1.0" standalone="no"?>
<!DOCTYPE svg PUBLIC "-//W3C//DTD SVG 20010904//EN"
 "http://www.w3.org/TR/2001/REC-SVG-20010904/DTD/svg10.dtd">
<svg version="1.0" xmlns="http://www.w3.org/2000/svg"
 width="512.000000pt" height="512.000000pt" viewBox="0 0 512.000000 512.000000"
 preserveAspectRatio="xMidYMid meet">

<g transform="translate(0.000000,512.000000) scale(0.100000,-0.100000)"
fill="#000000" stroke="none">
<path d="M197 4826 c-90 -33 -163 -108 -187 -196 -6 -19 -10 -179 -10 -362 0
-305 1 -331 20 -382 25 -64 81 -125 148 -158 l47 -23 2345 0 2345 0 46 21 c57
27 115 85 143 144 20 43 21 60 21 405 l0 360 -30 53 c-32 59 -66 91 -129 125
l-41 22 -2340 2 c-1951 2 -2346 0 -2378 -11z"/>
<path d="M187 3116 c-78 -28 -143 -96 -171 -179 -23 -68 -24 -667 -1 -744 19
-65 85 -139 150 -169 l50 -24 2345 0 2345 0 50 24 c65 30 131 104 150 169 23
78 22 674 -2 746 -20 62 -69 122 -131 159 l-47 27 -2350 2 c-1946 2 -2356 0
-2388 -11z"/>
<path d="M225 1421 c-57 -14 -104 -43 -149 -91 -74 -79 -78 -102 -74 -497 3
-326 4 -339 25 -379 34 -63 66 -97 125 -129 l53 -30 2355 0 2355 0 41 22 c63
34 97 66 129 125 l30 53 3 338 c3 393 1 413 -73 495 -25 27 -66 60 -92 73
l-48 24 -2325 2 c-1279 0 -2338 -2 -2355 -6z"/>
</g>
</svg>
