<?xml version="1.0" standalone="no"?>
<!DOCTYPE svg PUBLIC "-//W3C//DTD SVG 20010904//EN"
 "http://www.w3.org/TR/2001/REC-SVG-20010904/DTD/svg10.dtd">
<svg version="1.0" xmlns="http://www.w3.org/2000/svg"
 width="512.000000pt" height="512.000000pt" viewBox="0 0 512.000000 512.000000"
 preserveAspectRatio="xMidYMid meet">

<g transform="translate(0.000000,512.000000) scale(0.100000,-0.100000)"
fill="#000000" stroke="none">
<path d="M442 5100 c-106 -28 -187 -75 -267 -155 -81 -81 -127 -161 -155 -271
-20 -75 -20 -117 -20 -1794 0 -1677 0 -1719 20 -1794 11 -43 34 -105 52 -139
47 -88 156 -194 246 -239 139 -70 118 -69 1074 -66 851 3 857 3 885 24 98 73
98 195 0 268 -28 21 -35 21 -895 26 -837 5 -868 6 -907 25 -50 25 -105 80
-130 130 -20 39 -20 70 -20 1765 0 1695 0 1726 20 1765 25 50 80 105 130 130
39 20 67 20 1340 20 l1300 0 40 -22 c52 -28 109 -88 132 -138 17 -37 18 -96
23 -795 4 -582 8 -760 18 -777 18 -31 71 -70 109 -78 81 -17 175 52 188 137 3
24 5 374 3 778 -4 810 -1 767 -68 901 -66 129 -199 244 -338 291 l-67 23
-1320 2 c-1274 2 -1323 1 -1393 -17z"/>
<path d="M1700 4464 c-116 -31 -214 -115 -271 -229 -32 -66 -34 -75 -34 -180
0 -103 2 -114 32 -177 44 -94 109 -160 202 -206 73 -36 78 -37 186 -37 106 0
113 2 180 34 264 130 325 463 124 676 -109 115 -267 160 -419 119z"/>
<path d="M1400 3394 c-162 -43 -309 -164 -379 -315 -48 -103 -64 -187 -59
-318 3 -107 13 -132 72 -175 27 -21 38 -21 767 -24 721 -2 740 -2 778 18 21
10 50 36 62 57 22 34 24 49 24 153 0 63 -6 140 -14 170 -50 207 -221 381 -427
434 -86 22 -740 22 -824 0z"/>
<path d="M3447 2544 c-497 -90 -861 -503 -884 -1004 -23 -503 310 -950 805
-1082 111 -29 328 -36 445 -14 144 27 281 83 392 159 l50 34 315 -313 c340
-338 338 -336 427 -319 49 9 109 69 118 118 17 89 19 87 -319 427 l-313 315
34 50 c76 111 132 248 159 392 22 117 15 334 -14 445 -51 191 -141 348 -281
489 -132 133 -258 211 -431 268 -149 49 -349 63 -503 35z m388 -334 c248 -77
434 -265 512 -515 14 -47 18 -92 18 -205 -1 -130 -3 -153 -28 -225 -39 -117
-91 -199 -187 -295 -96 -96 -178 -148 -295 -187 -72 -25 -95 -27 -225 -28
-113 0 -158 4 -205 18 -308 95 -521 360 -542 672 -24 371 231 704 597 781 93
19 265 11 355 -16z"/>
<path d="M936 2217 c-109 -61 -106 -221 5 -278 38 -19 57 -19 563 -17 514 3
525 3 553 24 98 73 98 195 0 268 -28 21 -38 21 -555 23 l-527 3 -39 -23z"/>
<path d="M936 1577 c-109 -61 -106 -221 5 -278 38 -19 56 -19 513 -17 461 3
475 4 502 24 53 39 69 71 69 134 0 63 -16 95 -69 134 -27 20 -40 21 -504 23
l-477 3 -39 -23z"/>
</g>
</svg>
