<?xml version="1.0" standalone="no"?>
<!DOCTYPE svg PUBLIC "-//W3C//DTD SVG 20010904//EN"
 "http://www.w3.org/TR/2001/REC-SVG-20010904/DTD/svg10.dtd">
<svg version="1.0" xmlns="http://www.w3.org/2000/svg"
 width="512.000000pt" height="512.000000pt" viewBox="0 0 512.000000 512.000000"
 preserveAspectRatio="xMidYMid meet">

<g transform="translate(0.000000,512.000000) scale(0.100000,-0.100000)"
fill="#000000" stroke="none">
<path d="M2405 5109 c-266 -38 -479 -144 -670 -334 -150 -148 -233 -280 -294
-463 -253 -764 315 -1552 1119 -1552 578 0 1072 420 1165 990 48 298 -17 589
-192 858 -59 91 -245 269 -347 331 -233 144 -523 207 -781 170z"/>
<path d="M2220 2348 c-673 -63 -1337 -331 -1883 -762 -150 -119 -138 -57 -135
-727 l3 -564 31 -65 c34 -72 105 -150 165 -180 102 -52 -1 -50 2159 -50 2160
0 2057 -2 2159 50 60 30 131 108 165 180 l31 65 0 565 c0 669 10 613 -124 719
-563 444 -1213 706 -1911 770 -135 13 -523 12 -660 -1z"/>
</g>
</svg>
